<svg id="logo" xmlns="http://www.w3.org/2000/svg">
    <g>
        <g id="b">
            <path d="M9.4,10.8h11.3c4.5,0,6.8,2.3,6.8,6.9c0,1.4-0.3,2.7-1,3.7c-0.7,1-1.6,1.8-2.7,2.2c1.4,0.3,2.6,1,3.4,2.1c0.8,1.1,1.3,2.5,1.3,4.3c0,1.5-0.3,2.8-0.9,3.8c-0.6,1.1-1.5,1.9-2.5,2.4c-1.1,0.6-2.3,0.9-3.6,0.9h-12V10.8z M20.8,22.8c1.4,0,2.5-0.5,3.4-1.3c0.9-0.9,1.3-2.1,1.3-3.8c0-1.9-0.4-3.3-1.3-4.1c-0.9-0.8-2-1.2-3.8-1.2h-9v10.4H20.8z M21,35.5c1.7,0,3-0.5,3.9-1.3c0.9-0.9,1.4-2.3,1.4-4.2c0-1.9-0.5-3.3-1.5-4.2c-1-0.9-2.4-1.3-4.4-1.3h-9.1v10.9L21,35.5L21,35.5z" />
        </g>
        <g id="q">
            <path d="M47.4,10.2h2l-10.8,27h-2L47.4,10.2z" />
            <path d="M63.3,35.6c-2.1-1.1-3.9-2.6-5-4.6c-1.2-2-1.8-4.3-1.8-6.9c0-2.7,0.6-5.1,1.8-7.2c1.2-2.1,2.8-3.7,4.9-4.9c2-1.2,4.4-1.7,7-1.7c2.6,0,5,0.6,7,1.7c2,1.2,3.7,2.8,4.9,4.9s1.8,4.5,1.8,7.2c0,2.8-0.7,5.1-2,7.2c-1.3,2-3.2,3.5-5.5,4.3H84v1.7H70.5C67.9,37.1,65.5,36.7,63.3,35.6z M76.2,34c1.8-0.9,3.1-2.2,4.2-3.9c1-1.7,1.6-3.8,1.6-6.1s-0.6-4.5-1.6-6.3c-1-1.8-2.4-3.2-4.2-4.2c-1.8-0.9-3.8-1.5-6-1.5s-4.2,0.5-6,1.5c-1.8,0.9-3.2,2.4-4.2,4.2s-1.6,3.9-1.6,6.3s0.6,4.4,1.6,6.1s2.4,3,4.2,3.9c1.8,0.9,3.8,1.3,6,1.3C72.4,35.3,74.4,34.9,76.2,34z" />
            <path d="M101.5,10.2h2l-10.8,27h-2L101.5,10.2z" />
        </g>
        <g id="a">
            <path d="M121.1,10.8h1.8l10.5,26.4h-2l-3-7.6h-12.7l-3,7.6h-2L121.1,10.8z M127.8,27.9L122,13.2l-5.7,14.6H127.8z" />
        </g>
        <g id="brackets">
            <polygon points="1.6,46.4 1.6,1.6 51.3,1.6 51.9,0 0,0 0,48 32.9,48 33.5,46.4" />
            <polygon points="143,0 107.2,0 106.6,1.6 141.4,1.6 141.4,46.4 88.7,46.4 88.1,48 143,48" />
        </g>
    </g>
</svg>
